<svg width="200" height="362" xmlns="http://www.w3.org/2000/svg">
 <metadata id="metadata7">image/svg+xml</metadata>
 <g>
  <title>background</title>
  <rect fill="none" id="canvas_background" height="402" width="582" y="-1" x="-1"/>
 </g>
 <g>
  <title>Layer 1</title>
  <g id="layer1">
   <path opacity="0.524242" fill="#fc0000" d="m122.946441,78.219156c-1.196896,1.100516 2.803947,2.899739 4.341993,4.747712c1.538046,1.847972 2.758779,3.896778 4.3253,5.725668c2.254796,2.632436 5.678681,6.946914 7.279206,7.525422c1.600518,0.578508 1.876792,1.078799 1.511904,-0.517915c-0.034894,-2.615087 0.336649,-6.64896 -0.236648,-10.102874c-0.612219,-3.583278 -3.036452,-6.368432 -6.249393,-7.767062c-3.21294,-1.39863 -10.82723,0.20123 -10.972364,0.38905z" id="path2992"/>
   <path opacity="0.524242" fill="#fc0000" d="m74.329005,76.546562c1.129521,1.27005 -2.809654,3.586746 -4.097577,5.479094c-1.451467,2.132651 -2.603483,4.497075 -4.081816,6.607704c-2.127871,3.037962 -5.359027,8.017083 -6.869449,8.684709c-1.510429,0.667627 -1.771144,1.244987 -1.426804,-0.5977c0.03293,-3.017939 -0.317698,-7.673229 0.223333,-11.659217c0.577756,-4.13528 2.865526,-7.349486 5.897606,-8.963574c3.103475,-1.652096 10.217743,0.23223 10.354707,0.448983z" id="path2992-1"/>
  </g>
 </g>
</svg>