<svg width="200" height="369.0256" xmlns="http://www.w3.org/2000/svg">
 <metadata id="metadata7">image/svg+xml</metadata>
 <g>
  <title>background</title>
  <rect fill="none" id="canvas_background" height="402" width="582" y="-1" x="-1"/>
 </g>
 <g>
  <title>Layer 1</title>
  <g id="layer1">
   <path opacity="0.524242" fill="#fc0000" id="path2992-9-5" d="m133.264921,103.19539c-0.3625,2.35132 -0.62211,10.687 0.0856,13.02164c3.8465,9.09699 3.62452,11.21449 7.14787,12.86388c6.10219,2.85662 4.81236,1.08698 6.92525,0.15576c2.05497,-0.9057 4.7139,-2.75842 4.43256,-5.07359c-0.87122,-7.16941 1.00012,-14.25906 -1.07998,-20.8601c-16.47188,-16.75749 -16.00743,-10.16063 -17.51127,-0.10759l-0.00003,0z"/>
   <path opacity="0.524242" fill="#fc0000" id="path2992-9-5-1" d="m62.643231,103.41151c0.3625,2.35132 0.62211,10.687 -0.0856,13.02164c-3.8465,9.09699 -3.62452,11.21449 -7.14787,12.86388c-6.10219,2.85662 -4.81236,1.08698 -6.92525,0.15576c-2.05497,-0.9057 -4.7139,-2.75842 -4.43256,-5.07359c0.87122,-7.16941 -1.00012,-14.25906 1.07998,-20.8601c16.47188,-16.75749 16.00743,-10.16063 17.51127,-0.10759l0.00003,0z"/>
   <path stroke="null" opacity="0.524242" fill="#fc0000" id="path2992-9-5" d="m291.599954,278.66925c0.865836,3.6633 -0.651761,43.09284 0.74543,48.63888c2.234695,8.8704 -0.848824,29.19307 0.025538,29.59121c1.656265,0.91978 1.900465,-0.28511 2.501212,-0.91864c4.400103,-4.64016 2.865661,-12.29168 5.253878,-18.13123c2.732798,-6.6821 5.17203,-6.44129 10.298382,-19.13389c0.431307,-4.25735 2.431726,-10.64845 2.611475,-16.06563c0.14609,-4.40301 -0.225509,-10.77342 -1.252623,-13.16097c-0.085684,-3.20813 -7.475157,-16.98878 -9.739852,-18.55787c-2.658372,-0.64249 -5.325886,-3.66092 -6.86456,-1.63796c-3.579444,1.48689 -3.510146,1.68575 -4.869624,4.03725l-1.83641,43.33885z"/>
   <path stroke="null" opacity="0.524242" fill="#fc0000" id="path2992-9-5-1" d="m171.847606,176.188826c6.858381,-2.253858 -19.592647,-53.203828 -19.755171,-51.82389c-0.162524,1.379938 -4.810768,-2.566133 -6.200622,-0.615235c-3.233241,1.433924 -3.170646,1.625701 -4.398635,3.893436c-0.866786,13.93168 15.963525,52.728303 26.588167,49.510067z"/>
   <path stroke="null" opacity="0.524242" fill="#fc0000" id="svg_1" d="m25.188531,178.14623c-7.28402,-2.33711 20.80859,-55.16905 20.9812,-53.73814c0.17261,1.43091 5.10933,-2.66092 6.58544,-0.63796c3.4339,1.48689 3.36742,1.68575 4.67162,4.03725c0.92058,14.446283 -16.95424,54.67596 -28.23826,51.33885z"/>
  </g>
 </g>
</svg>