<svg width="200" height="362" xmlns="http://www.w3.org/2000/svg">
 <metadata id="metadata7">image/svg+xml</metadata>
 <g>
  <title>background</title>
  <rect fill="none" id="canvas_background" height="402" width="582" y="-1" x="-1"/>
 </g>
 <g>
  <title>Layer 1</title>
  <g stroke="null" id="layer1">
   <path opacity="0.524242" fill="#fc0000" d="m124.03294,66.75882c20.18964,1.31387 18.98088,27.24064 21.21007,28.14527c2.22918,0.90463 2.61397,1.68695 2.10576,-0.80988c-0.0486,-4.08929 0.46888,-10.39718 -0.3296,-15.79817c-0.85269,-5.60328 -4.22913,-9.95851 -8.70407,-12.14559c-4.58031,-2.23858 -34.4718,-0.7055 -14.28216,0.60837z" id="path2992"/>
   <path opacity="0.524242" fill="#fc0000" d="m73.23331,67.9447c-18.94827,3.98826 -18.98088,8.24064 -22.21006,28.14527l-2.10577,-0.80988l0.32961,-15.79817c0.85269,-5.60328 4.22913,-9.95851 8.70407,-12.14559c4.47494,-2.18708 34.23042,-3.37989 15.28215,0.60837z" id="path2992-1"/>
  </g>
 </g>
</svg>